<svg width="8" height="8" fill="none" xmlns="http://www.w3.org/2000/svg"><path d="M1.477 4.789v.289c0 .378.178.711.444.933a.808.808 0 0 0-.444.722.82.82 0 0 0 .822.823.82.82 0 0 0 .823-.823.75.75 0 0 0-.133-.444h2.579a.82.82 0 0 0 .69 1.267.82.82 0 0 0 .822-.823.82.82 0 0 0-.823-.822H2.688a.844.844 0 0 1-.844-.844v-.1H5.59c.445 0 .845-.267 1.023-.678l.856-2.022a.178.178 0 0 0-.012-.167c-.033-.055-.077-.089-.144-.089l-5.492-.544C1.755.9 1.243.445.631.445c-.1 0-.188.077-.188.188 0 .1.078.19.189.19.467 0 .845.377.845.844v3.122Zm.822 2.4a.446.446 0 0 1-.444-.444c0-.245.2-.445.444-.445.245 0 .445.2.445.445 0 .244-.2.444-.445.444Zm4.391-.444c0 .244-.2.444-.444.444a.446.446 0 0 1-.445-.444c0-.245.2-.445.445-.445.233-.011.444.2.444.445Zm-.41-2.59a.715.715 0 0 1-.68.445H1.844V1.856l5.191.51-.756 1.79Z" fill="#212121" stroke="#212121" stroke-width=".183"/></svg>