<svg width="8" height="8" fill="none" xmlns="http://www.w3.org/2000/svg"><path d="M1.477 4.789v.289c0 .378.177.711.444.933a.808.808 0 0 0-.444.722.82.82 0 0 0 .822.823.82.82 0 0 0 .823-.823.75.75 0 0 0-.134-.444h2.58a.82.82 0 0 0 .69 1.267.82.82 0 0 0 .821-.823.82.82 0 0 0-.822-.822H2.688a.844.844 0 0 1-.845-.844v-.1H5.59c.444 0 .845-.267 1.023-.678l.855-2.022a.178.178 0 0 0-.01-.167c-.034-.055-.078-.089-.145-.089L1.82 1.467C1.755.9 1.243.445.631.445c-.1 0-.188.077-.188.188 0 .1.078.19.189.19.467 0 .845.377.845.844v3.122Zm.822 2.4a.446.446 0 0 1-.444-.444c0-.245.2-.445.444-.445.245 0 .445.2.445.445 0 .244-.2.444-.445.444Zm4.391-.444c0 .244-.2.444-.444.444a.446.446 0 0 1-.445-.444c0-.245.2-.445.445-.445.233-.011.444.2.444.445Zm-.411-2.59a.715.715 0 0 1-.678.445H1.843V1.856l5.192.51-.756 1.79Z" fill="#fff" stroke="#fff" stroke-width=".183"/></svg>