<svg width="12" height="12" fill="none" xmlns="http://www.w3.org/2000/svg"><path d="M6 7c1.11 0 2-.89 2-2 0-1.11-.89-2-2-2-1.11 0-2 .89-2 2 0 1.11.89 2 2 2Zm0-3.4a1.4 1.4 0 0 1 0 2.8A1.39 1.39 0 0 1 4.6 5 1.4 1.4 0 0 1 6 3.6Z" fill="#3C4677" stroke="#3C4677" stroke-width=".35"/><path d="m2.485 7.916 2.557 3.124c.235.295.58.46.96.46.382 0 .726-.165.962-.46L9.52 7.916a4.52 4.52 0 0 0 .979-2.85 4.68 4.68 0 0 0-1.414-3.327A4.516 4.516 0 0 0 5.713.508c-2.249.129-4.099 2.04-4.207 4.32a4.626 4.626 0 0 0 .979 3.088Zm-.381-3.052c.09-1.985 1.705-3.64 3.663-3.75a3.838 3.838 0 0 1 2.92 1.067A3.933 3.933 0 0 1 9.92 5.067a3.9 3.9 0 0 1-.853 2.463l-2.575 3.106a.663.663 0 0 1-.49.24.608.608 0 0 1-.489-.24L2.956 7.53a3.917 3.917 0 0 1-.852-2.666Z" fill="#3C4677" stroke="#3C4677" stroke-width=".35"/></svg>