<svg width="11" height="11" fill="none" xmlns="http://www.w3.org/2000/svg"><path fill-rule="evenodd" clip-rule="evenodd" d="M0 1.1a1.1 1.1 0 1 1 2.2 0 1.1 1.1 0 0 1-2.2 0Zm0 4.4a1.1 1.1 0 1 1 2.2 0 1.1 1.1 0 0 1-2.2 0Zm1.1 3.3a1.1 1.1 0 1 0 0 2.2 1.1 1.1 0 0 0 0-2.2Zm3.3-7.7a1.1 1.1 0 1 1 2.2 0 1.1 1.1 0 0 1-2.2 0Zm1.1 3.3a1.1 1.1 0 1 0 0 2.2 1.1 1.1 0 0 0 0-2.2ZM4.4 9.9a1.1 1.1 0 1 1 2.2 0 1.1 1.1 0 0 1-2.2 0ZM9.9 0a1.1 1.1 0 1 0 0 2.2 1.1 1.1 0 0 0 0-2.2ZM8.8 5.5a1.1 1.1 0 1 1 2.2 0 1.1 1.1 0 0 1-2.2 0Zm1.1 3.3a1.1 1.1 0 1 0 0 2.2 1.1 1.1 0 0 0 0-2.2Z" fill="#fff"/></svg>