<svg width="30" height="25" fill="none" xmlns="http://www.w3.org/2000/svg"><path d="M17.959 23.36h.075c3.148 0 7.87-5.462 9.03-7.797 1.5-2.975.563-6.779-2.135-8.511-1.2-.753-2.623-1.017-3.972-.678-1.162.264-2.174.941-2.96 1.883-.788-.942-1.8-1.62-2.961-1.883a5.284 5.284 0 0 0-3.973.678c-2.66 1.732-3.635 5.536-2.136 8.511 1.162 2.335 5.921 7.796 9.032 7.796ZM11.738 8.144c.674-.414 1.386-.64 2.136-.64.3 0 .6.037.9.113 1.124.263 2.098.979 2.735 2.071.112.188.3.301.525.301a.598.598 0 0 0 .524-.3c.637-1.055 1.612-1.809 2.736-2.072a4.018 4.018 0 0 1 2.998.527c2.136 1.356 2.885 4.444 1.686 6.854-.6 1.206-2.06 3.051-3.56 4.482-1.761 1.657-3.335 2.636-4.347 2.636h-.037c-2.324 0-6.746-4.745-7.907-7.117-1.312-2.41-.563-5.5 1.61-6.855Z" fill="#212121" stroke="#212121" stroke-width=".8"/></svg>