<svg width="166" height="74" fill="none" xmlns="http://www.w3.org/2000/svg"><path d="m19.13 37.603 4.21-7.763c-.791-.94-1.26-2.012-1.26-3.326 0-3.647 2.252-6.691 6.919-7.12l-1.85 3.42a3.667 3.667 0 0 0 1.474 4.974 3.667 3.667 0 0 0 4.975-1.475l6.356-11.706c-2.762-1.354-5.86-2.172-9.52-2.172-9.521 0-16.977 6.14-16.977 15.46 0 4.76 2.588 7.563 5.673 9.708Zm10.23-3.553-3.995 7.375c2.199 1.448 3.821 3.03 3.821 5.377 0 4.626-4.076 7.871-9.319 7.871-2.99 0-5.98-1.247-8.528-2.722L8 58.093c3.299 2.01 7.281 3.472 11.451 3.472 9.32 0 18.425-5.86 18.425-16.211 0-6.142-4.372-8.93-8.515-11.304Z" fill="#00A4C8"/><path d="M49.77 35.511c1.275.886 2.857 1.677 4.452 1.677 1.918 0 3.447-1.274 3.447-2.857 0-2.802-6.705-2.99-6.705-8.125 0-4.291 3.352-7 7.737-7 2.105 0 3.862.604 5.485 1.61l-1.73 3.19c-1.154-.697-2.374-1.126-3.809-1.126-2.064 0-3.017 1.194-3.017 2.615 0 2.83 6.705 2.99 6.705 8.032 0 4.747-4.117 7.335-8.246 7.335-2.347 0-4.385-.912-6.088-2.132l1.77-3.218Zm22.475-15.983h5.297l2.226 21.012h-4.694l-.335-5.511h-5.726l-2.467 5.51h-4.653l10.352-21.011Zm2.28 12.014-.242-4.076c-.094-1.274-.094-3.11-.026-4.653-.55 1.582-1.248 3.38-1.824 4.653l-1.824 4.076h3.916Zm10.619-12.014h3.687l4.814 12.792c.12-1.488.309-3.285.523-4.412l1.61-8.367h4.451l-4.076 21.012h-3.688l-4.867-12.296c-.094 1.395-.242 2.923-.456 3.929l-1.61 8.367h-4.451l4.063-21.025Zm19.831 0h12.216l-.979 3.687h-7.496l-.938 4.814h6.879l-.738 3.688h-6.879l-.979 5.149h7.67l-.455 3.687h-12.391l4.09-21.025Zm16.415 0h4.451l-3.379 17.324h8.22l-.737 3.688h-12.632l4.077-21.012Zm15.125 0h4.451L136.89 40.54h-4.452l4.077-21.012Zm11.049 3.674h-4.934l.697-3.688h14.321l-.697 3.688h-4.935l-3.379 17.324h-4.452l3.379-17.324ZM52.728 45.434c2.132 0 2.963 1.623 2.963 3.5 0 2.709-1.435 5.86-4.774 5.86-2.132 0-2.963-1.596-2.963-3.486-.014-2.722 1.435-5.874 4.774-5.874Zm-1.623 8.368c2.105 0 3.352-2.226 3.352-4.922 0-1.34-.469-2.467-1.944-2.467-2.105 0-3.352 2.226-3.352 4.921 0 1.368.47 2.468 1.944 2.468Zm6.919-8.18h.952l-.12 1.167h.04c.831-.751 1.81-1.368 2.87-1.368 2.05 0 2.681 1.287 2.319 3.164l-1.167 5.994h-1.153l1.113-5.766c.255-1.314.201-2.413-1.327-2.413-1.006 0-2.106.845-2.816 1.569l-1.288 6.61h-1.153l1.73-8.957Zm9.413-3.929 1.22-.389-2.587 13.289h-1.154l2.521-12.9Zm2.441 3.929h1.153l-1.743 8.957h-1.153l1.743-8.957Zm.295-2.655c0-.43.362-.778.804-.778.43 0 .805.335.805.778 0 .429-.376.778-.805.778a.785.785 0 0 1-.804-.778Zm2.963 2.655h.952l-.12 1.167h.04c.831-.751 1.81-1.368 2.87-1.368 2.05 0 2.681 1.287 2.32 3.164L78.03 54.58h-1.154l1.113-5.766c.255-1.314.201-2.413-1.327-2.413-1.006 0-2.105.845-2.816 1.569l-1.287 6.61h-1.154l1.73-8.957Zm11.559-.188c1.958 0 2.588 1.234 2.588 2.065 0 2.387-2.803 2.816-5.297 2.923l-.804.04c-.04.31-.04.618-.04.9 0 1.474.59 2.44 2.051 2.44.805 0 1.757-.309 2.521-.577l.16.952c-.857.322-1.943.617-2.855.617-2.052 0-3.084-1.368-3.084-3.486-.014-3.111 1.676-5.874 4.76-5.874Zm-2.722 4.077c1.998-.121 4.143-.47 4.143-1.958 0-.617-.375-1.126-1.622-1.126-1.757 0-2.75 1.448-3.138 3.124l.617-.04Z" fill="#212121"/></svg>