<svg width="24" height="24" fill="none" xmlns="http://www.w3.org/2000/svg"><path d="M12 14c2.218 0 4-1.782 4-4s-1.782-4-4-4-4 1.782-4 4 1.782 4 4 4Zm0-6.8a2.801 2.801 0 0 1 0 5.6A2.778 2.778 0 0 1 9.2 10c0-1.564 1.273-2.8 2.8-2.8Z" fill="#212121" stroke="#212121" stroke-width=".7"/><path d="m4.97 15.831 5.113 6.25a2.43 2.43 0 0 0 1.923.919c.761 0 1.45-.33 1.922-.92l5.113-6.249C20.348 14.177 21 12.23 21 10.133c0-2.5-1.052-4.926-2.829-6.654-1.85-1.728-4.243-2.61-6.746-2.463-4.497.257-8.196 4.08-8.414 8.64A9.253 9.253 0 0 0 4.97 15.83ZM4.208 9.73c.181-3.97 3.41-7.28 7.326-7.5 2.176-.147 4.243.625 5.84 2.132 1.595 1.508 2.465 3.566 2.465 5.772 0 1.801-.58 3.53-1.704 4.926l-5.15 6.213c-.254.294-.617.478-.98.478-.398 0-.761-.184-.979-.478L5.913 15.06a7.835 7.835 0 0 1-1.705-5.33Z" fill="#212121" stroke="#212121" stroke-width=".7"/></svg>