<svg width="24" height="25" fill="none" xmlns="http://www.w3.org/2000/svg"><path d="M17.096 13.909c-.255-.182-.655-.146-.837.145-.182.255-.146.655.145.837l3.094 2.22s.036 0 .036.036c.473.292.655.91.437 1.42l-1.456 2.584s0 .036-.037.036a1.12 1.12 0 0 1-1.018.655H6.142a1.12 1.12 0 0 1-1.02-.655s0-.036-.036-.036l-1.455-2.584a1.15 1.15 0 0 1 .436-1.42s.037 0 .037-.036l3.093-2.22c.255-.182.328-.582.146-.837-.182-.255-.583-.327-.837-.145l-3.057 2.183c-.983.619-1.383 1.893-.874 2.948 0 0 0 .036.037.036l1.455 2.584c.4.8 1.201 1.347 2.111 1.347h11.354c.91 0 1.747-.51 2.111-1.347l1.456-2.584s0-.036.036-.036c.473-1.055.11-2.33-.873-2.948l-3.166-2.183Z" fill="#212121" stroke="#212121" stroke-width=".8"/><path d="M11.819 14.891c3.02 0 5.677-3.42 5.677-7.351 0-3.567-2.402-6.187-5.677-6.187-3.275 0-5.677 2.584-5.677 6.187 0 3.93 2.656 7.351 5.677 7.351Zm4.476-7.351c0 3.202-2.11 6.114-4.476 6.114-2.33 0-4.476-2.912-4.476-6.114 0-2.911 1.82-4.986 4.476-4.986 2.62.037 4.476 2.075 4.476 4.986Z" fill="#212121" stroke="#212121" stroke-width=".8"/></svg>