<svg width="84" height="23" fill="none" xmlns="http://www.w3.org/2000/svg"><path d="m8.826 11.778 1.943-3.582c-.365-.433-.582-.928-.582-1.534 0-1.683 1.04-3.087 3.193-3.285l-.854 1.577a1.692 1.692 0 1 0 2.976 1.615l2.932-5.401C17.16.543 15.731.166 14.042.166c-4.393 0-7.833 2.833-7.833 7.133 0 2.196 1.194 3.49 2.617 4.48Zm4.721-1.639-1.844 3.403c1.015.668 1.763 1.398 1.763 2.48 0 2.135-1.88 3.632-4.3 3.632-1.38 0-2.759-.575-3.934-1.256l-1.54 2.834c1.521.928 3.359 1.602 5.283 1.602 4.3 0 8.5-2.703 8.5-7.48 0-2.833-2.017-4.12-3.928-5.215Z" fill="#00A4C8"/><path d="M22.964 10.813c.587.409 1.317.774 2.054.774.884 0 1.59-.588 1.59-1.318 0-1.293-3.094-1.38-3.094-3.75 0-1.98 1.547-3.229 3.57-3.229.971 0 1.782.278 2.53.742l-.798 1.473c-.532-.322-1.095-.52-1.757-.52-.953 0-1.392.55-1.392 1.207 0 1.305 3.094 1.38 3.094 3.706 0 2.19-1.9 3.384-3.805 3.384-1.083 0-2.023-.421-2.809-.984l.817-1.485Zm10.369-7.375h2.444l1.027 9.695h-2.166l-.154-2.543h-2.642l-1.138 2.543h-2.147l4.776-9.695Zm1.052 5.544-.111-1.88a20.484 20.484 0 0 1-.013-2.148c-.254.73-.575 1.56-.841 2.147l-.842 1.88h1.807Zm4.899-5.544h1.702l2.22 5.903c.056-.687.143-1.516.242-2.036l.742-3.86h2.055l-1.881 9.694h-1.702l-2.245-5.673c-.044.644-.112 1.349-.21 1.813l-.743 3.86H37.41l1.874-9.7Zm9.15 0h5.637l-.452 1.702h-3.458l-.434 2.22h3.174l-.34 1.702h-3.174l-.451 2.376h3.538l-.21 1.701h-5.717l1.888-9.7Zm7.574 0h2.054l-1.56 7.994h3.793l-.34 1.701h-5.828l1.88-9.695Zm6.978 0h2.054l-1.88 9.695h-2.054l1.88-9.695Zm5.099 1.696h-2.277l.321-1.702h6.608l-.322 1.702h-2.277l-1.559 7.993h-2.054l1.56-7.993ZM24.328 15.391c.984 0 1.367.749 1.367 1.615 0 1.25-.662 2.704-2.202 2.704-.984 0-1.368-.736-1.368-1.609-.006-1.256.662-2.71 2.203-2.71Zm-.749 3.86c.972 0 1.547-1.026 1.547-2.27 0-.618-.216-1.138-.897-1.138-.971 0-1.547 1.027-1.547 2.27 0 .632.217 1.139.897 1.139Zm3.193-3.773h.439l-.056.538h.019c.384-.346.835-.63 1.324-.63.946 0 1.237.593 1.07 1.46l-.538 2.765h-.532l.513-2.66c.118-.607.093-1.114-.612-1.114-.464 0-.972.39-1.3.724l-.593 3.05h-.532l.798-4.133Zm4.343-1.813.563-.18-1.194 6.132h-.532l1.163-5.952Zm1.125 1.813h.533l-.804 4.133h-.532l.804-4.133Zm.137-1.225c0-.198.167-.359.371-.359.198 0 .372.155.372.36a.37.37 0 0 1-.372.358.362.362 0 0 1-.371-.359Zm1.367 1.225h.44l-.056.538h.018c.384-.346.836-.63 1.324-.63.947 0 1.238.593 1.07 1.46l-.538 2.765h-.532l.514-2.66c.117-.607.093-1.114-.613-1.114-.464 0-.97.39-1.299.724l-.594 3.05h-.532l.798-4.133Zm5.333-.087c.904 0 1.194.57 1.194.953 0 1.101-1.293 1.3-2.443 1.349l-.372.018c-.018.143-.018.285-.018.415 0 .68.272 1.126.946 1.126.372 0 .81-.142 1.163-.266l.075.44c-.396.148-.897.284-1.318.284-.947 0-1.423-.631-1.423-1.609-.006-1.435.773-2.71 2.196-2.71Zm-1.256 1.881c.922-.055 1.912-.216 1.912-.903 0-.285-.173-.52-.748-.52-.81 0-1.269.668-1.448 1.442l.284-.019Z" fill="#212121"/></svg>