<svg width="15" height="16" fill="none" xmlns="http://www.w3.org/2000/svg"><g opacity=".5" fill-rule="evenodd" clip-rule="evenodd" fill="#212121" clip-path="url(#a)"><path d="M7.5 11.333a3.333 3.333 0 1 1 0-6.666 3.333 3.333 0 0 1 0 6.666ZM7.5 10a2 2 0 1 0 0-4 2 2 0 0 0 0 4Z"/><path d="M9.545 8a.682.682 0 0 1 1.364 0v.682a1.363 1.363 0 0 0 2.727 0V8a6.136 6.136 0 1 0-2.405 4.872.682.682 0 1 1 .829 1.083A7.5 7.5 0 1 1 15 8v.682a2.727 2.727 0 1 1-5.455 0V8Z"/></g><defs><clipPath id="a"><path fill="#fff" transform="translate(0 .5)" d="M0 0h15v15H0z"/></clipPath></defs></svg>