<svg width="50" height="50" fill="none" xmlns="http://www.w3.org/2000/svg"><path d="M2 15.438h20.157l1.55 3.187H3.552L2 15.437Zm2.067 6.374h20.158L25.775 25H5.618l-1.55-3.188Zm33.596 17c1.716 0 3.101-1.423 3.101-3.187 0-1.764-1.385-3.188-3.101-3.188s-3.101 1.424-3.101 3.188c0 1.764 1.385 3.188 3.1 3.188Zm3.101-19.124h-5.169V25h9.221l-4.052-5.313ZM16.989 38.813c1.716 0 3.1-1.424 3.1-3.188 0-1.764-1.384-3.188-3.1-3.188-1.716 0-3.101 1.424-3.101 3.188 0 1.764 1.385 3.188 3.1 3.188ZM41.798 16.5 48 25v10.625h-4.135c0 3.528-2.77 6.375-6.202 6.375s-6.202-2.847-6.202-6.375h-8.27c0 3.528-2.791 6.375-6.202 6.375-3.432 0-6.203-2.847-6.203-6.375H6.652v-7.438h4.135v3.188h1.57c1.138-1.296 2.792-2.125 4.632-2.125 1.84 0 3.494.829 4.63 2.125h9.842V12.25H6.65C6.65 9.891 8.49 8 10.786 8h24.809v8.5h6.202Z" fill="#3C4677"/></svg>