<svg width="50" height="50" fill="none" xmlns="http://www.w3.org/2000/svg"><path d="M34.194 42.704a3.945 3.945 0 0 1-2.927.023 3.765 3.765 0 0 1-2.086-1.984 3.584 3.584 0 0 1-.024-2.83 3.76 3.76 0 0 1 2.052-2.017 3.937 3.937 0 0 1 2.927-.023c.465.182.89.45 1.247.791.358.34.643.746.84 1.193a3.593 3.593 0 0 1 .023 2.83c-.188.45-.466.86-.818 1.206a3.834 3.834 0 0 1-1.234.811ZM16.667 13.4c2.124 0 3.827-1.646 3.827-3.7 0-.981-.403-1.922-1.121-2.616A3.895 3.895 0 0 0 16.667 6c-2.143 0-3.827 1.665-3.827 3.7 0 2.054 1.684 3.7 3.827 3.7Zm27.61 19.129L36.912 35.6c.421.407.804.925 1.072 1.517.268.61.382 1.258.459 1.85l7.328-3.034-1.492-3.404Zm-22.75-13.986 1.416 3.349a6.191 6.191 0 0 1-1.225-.611c-1.148-.721-1.99-1.628-2.544-2.701l-1.416-2.904c-.364-.648-.804-1.129-1.416-1.462a3.545 3.545 0 0 0-1.76-.481 4.07 4.07 0 0 0-1.742.407c-2.679 2.035-3.348 5.809-3.348 5.809l-.651 2.904a16.408 16.408 0 0 0-.268 2.905v9.176L4 40.91 6.87 43l5.3-6.938.326-6.012 3.214 4.329V43h3.54V31.789l-3.54-4.829v-1.202c0-.814 0-1.61.21-2.386l.67-2.22a11.508 11.508 0 0 0 2.66 2.663c.861.63 3.272 1.74 5.55 2.276l4.075 9.139a5.053 5.053 0 0 1 1.588-1.036c.612-.259 1.282-.37 1.894-.444l-7.31-16.65-3.52 1.443Zm9.95 6.179 3.75 8.51L46 28.773l-3.731-8.491" fill="#3C4677"/></svg>