<svg width="50" height="50" fill="none" xmlns="http://www.w3.org/2000/svg"><path d="M20 37.316a3.12 3.12 0 0 0-1.667.479 2.88 2.88 0 0 0-1.105 1.275 2.704 2.704 0 0 0-.17 1.642 2.8 2.8 0 0 0 .82 1.456c.42.397.955.668 1.537.777.582.11 1.185.054 1.733-.161a2.971 2.971 0 0 0 1.346-1.047c.33-.468.506-1.017.506-1.58 0-.753-.316-1.476-.879-2.009A3.087 3.087 0 0 0 20 37.316Zm21-5.684H17c-.53 0-1.04-.2-1.414-.555a1.846 1.846 0 0 1-.586-1.34c0-.503.21-.985.586-1.34A2.058 2.058 0 0 1 17 27.842h16.982a6.247 6.247 0 0 0 3.61-1.15 5.714 5.714 0 0 0 2.16-2.973l3.17-10.516c.085-.281.1-.578.043-.866a1.847 1.847 0 0 0-.37-.794 1.979 1.979 0 0 0-.704-.554 2.091 2.091 0 0 0-.891-.2H16.48a5.74 5.74 0 0 0-2.188-2.739A6.245 6.245 0 0 0 10.84 7H9c-.53 0-1.04.2-1.414.555A1.846 1.846 0 0 0 7 8.895c0 .502.21.984.586 1.34A2.06 2.06 0 0 0 9 10.79h1.842c.434 0 .856.135 1.203.383.347.248.6.595.721.99l.31 1.033v.01l3.282 10.879c-1.528.155-2.934.859-3.93 1.967a5.497 5.497 0 0 0-1.424 3.99c.083 1.453.75 2.821 1.866 3.822A6.184 6.184 0 0 0 17 35.42h24c.53 0 1.04-.2 1.414-.555.375-.355.586-.837.586-1.34 0-.502-.21-.984-.586-1.34A2.058 2.058 0 0 0 41 31.633Zm-2.652-17.053-2.44 8.098c-.12.396-.374.744-.721.992s-.77.383-1.205.384H20.508l-.51-1.69-2.346-7.784h20.696ZM36 37.316a3.12 3.12 0 0 0-1.667.479 2.88 2.88 0 0 0-1.105 1.275 2.704 2.704 0 0 0-.17 1.642 2.8 2.8 0 0 0 .82 1.456c.42.397.955.668 1.537.777.582.11 1.185.054 1.733-.161a2.971 2.971 0 0 0 1.346-1.047c.33-.468.506-1.017.506-1.58 0-.753-.316-1.476-.879-2.009A3.087 3.087 0 0 0 36 37.316Z" fill="#3C4677"/></svg>