<svg width="50" height="50" fill="none" xmlns="http://www.w3.org/2000/svg"><path d="m27.11 30.346 1.745-1.776 3.054 3.108L37.8 26.35l1.745 1.776-7.636 6.882-4.8-4.662ZM45 30.05a13.06 13.06 0 0 1-3.728 9.157 12.618 12.618 0 0 1-9 3.793c-5.072 0-9.454-3.034-11.508-7.4H8.636a3.6 3.6 0 0 1-2.57-1.084A3.733 3.733 0 0 1 5 31.9V9.7C5 7.647 6.618 6 8.636 6h29.091c.965 0 1.89.39 2.572 1.084A3.733 3.733 0 0 1 41.364 9.7v11.285C43.618 23.316 45 26.517 45 30.05Zm-25.454 0c0-3.626 1.472-6.9 3.818-9.25H8.636v11.1h11.037c-.127-.61-.127-1.221-.127-1.85Zm12.727-9.25a9.012 9.012 0 0 0-6.429 2.71 9.332 9.332 0 0 0-2.662 6.54 9.33 9.33 0 0 0 2.663 6.54 9.012 9.012 0 0 0 6.428 2.71 9.013 9.013 0 0 0 6.428-2.71 9.333 9.333 0 0 0 2.663-6.54 9.333 9.333 0 0 0-2.663-6.54 9.013 9.013 0 0 0-6.428-2.71Zm5.454-7.4V9.7H8.637v3.7h29.09Z" fill="#3C4677"/></svg>