<svg width="15" height="16" fill="none" xmlns="http://www.w3.org/2000/svg"><g clip-path="url(#a)"><path fill-rule="evenodd" clip-rule="evenodd" d="M13.629 11.39a.688.688 0 0 0-.583-.71 9.504 9.504 0 0 1-2.077-.516.685.685 0 0 0-.72.15l-.87.87a.686.686 0 0 1-.824.11 11.64 11.64 0 0 1-4.369-4.36.683.683 0 0 1 .111-.822l.868-.866a.684.684 0 0 0 .154-.724 9.44 9.44 0 0 1-.517-2.065.687.687 0 0 0-.692-.589H2.055a.686.686 0 0 0-.683.735A12.846 12.846 0 0 0 3.373 8.24a12.675 12.675 0 0 0 3.906 3.897 12.88 12.88 0 0 0 5.603 1.993.686.686 0 0 0 .747-.687v-2.052Zm1.37.008v2.042a2.05 2.05 0 0 1-2.253 2.051A14.257 14.257 0 0 1 6.54 13.29a14.03 14.03 0 0 1-4.32-4.31A14.216 14.216 0 0 1 .01 2.737 2.05 2.05 0 0 1 2.054.5h2.049A2.056 2.056 0 0 1 6.16 2.271c.08.606.229 1.2.442 1.771a2.05 2.05 0 0 1-.465 2.168l-.492.49a10.271 10.271 0 0 0 3.143 3.138l.494-.493a2.058 2.058 0 0 1 2.168-.463 8.141 8.141 0 0 0 1.781.443A2.053 2.053 0 0 1 15 11.398Z" fill="#212121" opacity=".5"/></g><defs><clipPath id="a"><path fill="#fff" transform="translate(0 .5)" d="M0 0h15v15H0z"/></clipPath></defs></svg>