<svg width="46" height="28" fill="none" xmlns="http://www.w3.org/2000/svg"><rect width="46" height="28" rx="4" fill="#3C4677"/><path d="M21.872 19.643a6.79 6.79 0 0 0 4.454-1.645l3.756 3.724a.54.54 0 0 0 .35.144.54.54 0 0 0 .349-.144c.174-.174.174-.491 0-.693l-3.785-3.753c2.3-2.655 2.212-6.668-.32-9.18a6.79 6.79 0 0 0-4.804-1.962 6.79 6.79 0 0 0-4.804 1.963 6.675 6.675 0 0 0-1.98 4.763c0 1.79.7 3.492 1.98 4.763a6.726 6.726 0 0 0 4.804 2.02ZM17.767 8.818a5.798 5.798 0 0 1 4.105-1.703c1.543 0 3.028.606 4.105 1.703a5.75 5.75 0 0 1 0 8.17 5.798 5.798 0 0 1-4.105 1.703 5.748 5.748 0 0 1-4.105-1.703c-1.106-1.097-1.718-2.54-1.718-4.07a5.77 5.77 0 0 1 1.718-4.1Z" fill="#E7F1F1"/></svg>