<svg width="25" height="25" fill="none" xmlns="http://www.w3.org/2000/svg"><rect width="25" height="25" rx="4" fill="#3C4677"/><path d="M11.43 17.88c1.574 0 3.036-.55 4.223-1.568l3.56 3.55a.51.51 0 0 0 .332.138.51.51 0 0 0 .33-.138c.166-.165.166-.468 0-.66l-3.587-3.578c2.18-2.532 2.097-6.358-.304-8.752A6.418 6.418 0 0 0 11.431 5c-1.712 0-3.34.66-4.554 1.872A6.383 6.383 0 0 0 5 11.412a6.38 6.38 0 0 0 1.877 4.542 6.358 6.358 0 0 0 4.554 1.927ZM7.54 7.56a5.48 5.48 0 0 1 3.89-1.624c1.463 0 2.87.578 3.892 1.624a5.504 5.504 0 0 1 0 7.789 5.481 5.481 0 0 1-3.891 1.623 5.434 5.434 0 0 1-3.892-1.623 5.45 5.45 0 0 1-1.628-3.881c0-1.459.58-2.863 1.628-3.908Z" fill="#fff"/></svg>