<svg width="25" height="25" fill="none" xmlns="http://www.w3.org/2000/svg"><path d="M4.5 14.582v.88c0 1.15.541 2.165 1.353 2.842A2.462 2.462 0 0 0 4.5 20.503a2.498 2.498 0 0 0 2.504 2.504 2.498 2.498 0 0 0 2.503-2.504c0-.508-.135-.981-.406-1.353h7.85a2.36 2.36 0 0 0-.406 1.353 2.498 2.498 0 0 0 2.503 2.504 2.498 2.498 0 0 0 2.504-2.504 2.498 2.498 0 0 0-2.504-2.504H8.188a2.57 2.57 0 0 1-2.572-2.571v-.305h11.402a3.396 3.396 0 0 0 3.113-2.063l2.605-6.158a.543.543 0 0 0-.034-.508c-.101-.169-.237-.27-.44-.27L5.55 4.466C5.347 2.74 3.79 1.353 1.93 1.353a.57.57 0 0 0-.576.575.57.57 0 0 0 .576.576 2.57 2.57 0 0 1 2.57 2.57v9.508Zm2.504 7.308a1.357 1.357 0 0 1-1.354-1.353c0-.745.61-1.354 1.354-1.354.744 0 1.353.61 1.353 1.354 0 .744-.61 1.353-1.353 1.353Zm13.364-1.353c0 .744-.61 1.353-1.354 1.353a1.357 1.357 0 0 1-1.353-1.353c0-.745.61-1.354 1.353-1.354.71-.033 1.354.61 1.354 1.354Zm-1.252-7.883c-.338.845-1.15 1.353-2.064 1.353H5.616V5.65l15.8 1.556-2.3 5.448Z" fill="#212121" stroke="#212121" stroke-width=".8"/></svg>