<svg width="54" height="10" fill="none" xmlns="http://www.w3.org/2000/svg"><path d="m4.5 0 1.39 2.962L9 3.44 6.75 5.744 7.281 9 4.5 7.462 1.719 9l.531-3.256L0 3.44l3.11-.478L4.5 0Zm11 0 1.39 2.962L20 3.44l-2.25 2.304L18.281 9 15.5 7.462 12.719 9l.531-3.256L11 3.44l3.11-.478L15.5 0Zm11 0 1.39 2.962L31 3.44l-2.25 2.304L29.281 9 26.5 7.462 23.719 9l.531-3.256L22 3.44l3.11-.478L26.5 0Z" fill="#FCBA04" fill-opacity=".85"/><path opacity=".9" d="m37.5 0 1.39 2.962L42 3.44l-2.25 2.304L40.281 9 37.5 7.462 34.719 9l.531-3.256L33 3.44l3.11-.478L37.5 0Z" fill="#FCBA04" fill-opacity=".85"/><path d="m48.55 0 1.406 2.995 3.144.483-2.275 2.33.537 3.292-2.812-1.555L45.738 9.1l.537-3.292L44 3.478l3.144-.483L48.55 0Z" fill="#FCBA04" fill-opacity=".85"/></svg>