<svg width="20" height="16" fill="none" xmlns="http://www.w3.org/2000/svg"><path d="M18.908 11.804c-.049-.077-.35-.691-1.802-1.954-1.519-1.323-1.315-1.108.515-3.395 1.115-1.393 1.56-2.244 1.42-2.607-.132-.347-.952-.255-.952-.255l-2.725.014s-.202-.025-.353.059c-.146.083-.24.274-.24.274s-.432 1.078-1.008 1.995c-1.214 1.934-1.7 2.036-1.9 1.916-.46-.28-.345-1.125-.345-1.725 0-1.874.303-2.656-.59-2.858-.298-.067-.516-.111-1.274-.119-.973-.01-1.797.003-2.263.217-.31.143-.55.46-.404.479.18.022.589.103.805.38.28.355.27 1.157.27 1.157s.161 2.206-.375 2.48c-.369.189-.873-.195-1.956-1.95-.554-.899-.974-1.893-.974-1.893s-.08-.185-.224-.284a1.179 1.179 0 0 0-.42-.158l-2.592.014s-.389.011-.532.17c-.127.141-.01.432-.01.432s2.03 4.452 4.327 6.697c2.108 2.057 4.5 1.922 4.5 1.922h1.084s.327-.034.494-.203c.154-.155.149-.447.149-.447s-.022-1.364.654-1.565c.665-.197 1.52 1.319 2.426 1.902.685.442 1.205.345 1.205.345l2.423-.032s1.268-.073.667-1.008Z" stroke="#848A8A" stroke-width="1.3"/></svg>